Coordinates
version=1
nRows=29
nColumns=22
inDegrees=yes

Units are S.I. units (second, meters, Newtons, ...)
If the header above contains a line with 'inDegrees', this indicates whether rotational values are in degrees (yes) or radians (no).

endheader
time	pelvis_tilt	pelvis_list	pelvis_rotation	pelvis_tx	pelvis_ty	pelvis_tz	hip_flexion_r	hip_adduction_r	hip_rotation_r	knee_angle_r	ankle_angle_r	subtalar_angle_r	hip_flexion_l	hip_adduction_l	hip_rotation_l	knee_angle_l	ankle_angle_l	subtalar_angle_l	lumbar_extension	lumbar_bending	lumbar_rotation
      3.91000000	     -0.21653913	     -8.46356376	    -89.51359019	      0.19109754	      0.93695074	      0.74440937	     -9.49775349	      4.25116464	      2.99475441	    -44.06945006	    -13.34755343	      7.84896519	     11.90660662	     -0.40365150	     -9.31950172	    -25.44697879	     13.31266978	    -13.83755832	    -10.83129029	      0.85750116	     -5.60182033
      3.92000000	     -0.06925182	     -8.50101117	    -89.67853662	      0.19259298	      0.93734977	      0.75086056	     -8.43498584	      3.77637047	      2.50991742	    -46.06733311	    -14.47633165	      8.71044935	     11.46671172	     -0.16201754	     -9.49121255	    -25.58449307	     13.78071960	    -14.02118621	    -11.00406477	      0.68884414	     -5.81443033
      3.93000000	      0.07182808	     -8.56399270	    -89.82712100	      0.19406071	      0.93771557	      0.75707725	     -7.35973529	      3.31166360	      2.03694643	    -48.04245586	    -15.20847744	      9.70461236	     11.02045417	      0.08943246	     -9.57531950	    -25.72072750	     14.28881435	    -14.25540122	    -11.22357082	      0.53182570	     -6.00622895
      3.94000000	      0.22993471	     -8.64375499	    -89.93739618	      0.19553792	      0.93805409	      0.76307059	     -6.27885597	      2.82662874	      1.54768137	    -49.95375162	    -15.51652398	     10.61931886	     10.58964692	      0.36736715	     -9.62669257	    -25.87891408	     14.72410306	    -14.51679171	    -11.47404390	      0.36631417	     -6.25966367
      3.95000000	      0.38289394	     -8.74340354	    -90.02726224	      0.19700706	      0.93840612	      0.76885751	     -5.21120690	      2.34188066	      1.06603392	    -51.75527830	    -15.39807291	     11.40532456	     10.14866037	      0.65292126	     -9.62336454	    -26.02177113	     15.12256044	    -14.79127272	    -11.75247752	      0.21433894	     -6.51178826
      3.96000000	      0.50741028	     -8.85674888	    -90.10491951	      0.19846616	      0.93878821	      0.77445552	     -4.16644504	      1.88852950	      0.61881376	    -53.40268876	    -14.91452783	     12.12491243	      9.69705478	      0.92201161	     -9.55890382	    -26.14201062	     15.55945749	    -15.11791085	    -12.04867315	      0.10490472	     -6.74312553
      3.97000000	      0.62520363	     -8.98708533	    -90.16315220	      0.19991065	      0.93922624	      0.77988063	     -3.15870836	      1.44063625	      0.18695951	    -54.87691693	    -14.06442908	     12.53943120	      9.23278692	      1.18169552	     -9.51207076	    -26.24447095	     15.90587259	    -15.36177773	    -12.36125489	      0.01247817	     -7.01749300
      3.98000000	      0.68103112	     -9.14275176	    -90.23101988	      0.20127354	      0.93976782	      0.78514312	     -2.21264302	      1.08261415	     -0.17123655	    -56.13651175	    -12.94843977	     12.74764171	      8.72516471	      1.37695762	     -9.43886368	    -26.29787629	     16.28446374	    -15.48350622	    -12.69986977	     -0.00940073	     -7.25246394
      3.99000000	      0.71614821	     -9.27454558	    -90.28572257	      0.20262987	      0.94032929	      0.79022582	     -1.26164767	      0.74195240	     -0.53874394	    -57.20688273	    -11.70595743	     12.88302585	      8.25288218	      1.54651719	     -9.38501860	    -26.34287852	     16.57777159	    -15.73206761	    -13.00610485	      0.00156301	     -7.47844486
      4.00000000	      0.70746185	     -9.40343368	    -90.35452686	      0.20386647	      0.94095609	      0.79514460	     -0.34282366	      0.48908567	     -0.82595157	    -58.06660826	    -10.38911151	     12.80361476	      7.76528180	      1.66023285	     -9.35391585	    -26.33709242	     16.92093421	    -15.97980737	    -13.30416763	      0.05689603	     -7.73376282
      4.01000000	      0.61503168	     -9.54527144	    -90.44570028	      0.20498646	      0.94168410	      0.79991160	      0.50931193	      0.35404290	     -1.07069336	    -58.68835324	     -9.01509117	     12.72864220	      7.25048626	      1.66611659	     -9.36695555	    -26.29735151	     17.24658560	    -16.00065919	    -13.61205023	      0.20271288	     -7.93073342
      4.02000000	      0.56860525	     -9.62486644	    -90.54175844	      0.20602410	      0.94233572	      0.80442998	      1.42496192	      0.18939838	     -1.27422523	    -59.18194918	     -7.57808260	     12.28982458	      6.80274383	      1.72378564	     -9.36939905	    -26.21930272	     17.41986903	    -16.13277404	    -13.85818288	      0.28296425	     -8.12567703
      4.03000000	      0.46240647	     -9.69612343	    -90.64348168	      0.20700849	      0.94301674	      0.80884167	      2.28646717	      0.09695237	     -1.47198880	    -59.46026098	     -6.12459633	     11.77501144	      6.35445387	      1.69882618	     -9.43394497	    -26.11735803	     17.67172223	    -16.18760878	    -14.08303611	      0.43665512	     -8.32206743
      4.04000000	      0.35545206	     -9.74111840	    -90.74344224	      0.20792260	      0.94367246	      0.81308556	      3.13360586	      0.01364210	     -1.65257566	    -59.57759217	     -4.63377750	     11.29733826	      5.92768539	      1.66501643	     -9.51497333	    -25.97915198	     17.88579578	    -16.19043211	    -14.27914157	      0.58106388	     -8.50159996
      4.05000000	      0.26417613	     -9.76040136	    -90.84562496	      0.20883156	      0.94429562	      0.81722937	      3.95625186	     -0.10438615	     -1.83734496	    -59.54026340	     -3.10413683	     10.81448698	      5.51901486	      1.64675196	     -9.61408193	    -25.80828005	     18.06292583	    -16.17431484	    -14.43532875	      0.71328358	     -8.67705037
      4.06000000	      0.17133501	     -9.76043941	    -90.94078642	      0.20973731	      0.94489720	      0.82129343	      4.73579841	     -0.24311564	     -2.05086211	    -59.34078164	     -1.56769918	     10.20627368	      5.12027010	      1.62947459	     -9.69503440	    -25.60383018	     18.21924302	    -16.15106303	    -14.55862949	      0.84941293	     -8.83151010
      4.07000000	      0.11265407	     -9.74489877	    -91.02533203	      0.21063685	      0.94545953	      0.82529371	      5.47110815	     -0.44984975	     -2.30424752	    -59.00174540	     -0.04573899	      9.57194205	      4.73310512	      1.64469331	     -9.80321564	    -25.37712299	     18.34489614	    -16.11989537	    -14.65109273	      0.94982803	     -9.00387773
      4.08000000	      0.07129124	     -9.71502722	    -91.10020207	      0.21151745	      0.94599084	      0.82924684	      6.15116091	     -0.70509167	     -2.60515558	    -58.51573535	      1.43220138	      8.85114470	      4.35299466	      1.67992071	     -9.90200247	    -25.12365643	     18.45262077	    -16.08467341	    -14.71035002	      1.02969846	     -9.17897463
      4.09000000	      0.06810904	     -9.67229866	    -91.15445100	      0.21239708	      0.94648313	      0.83315130	      6.77563001	     -1.03002896	     -2.95412166	    -57.89954169	      2.85010413	      8.12015081	      3.97796483	      1.75917805	     -9.98430214	    -24.83953412	     18.53608382	    -16.04029234	    -14.74032170	      1.06859267	     -9.37575392
      4.10000000	      0.01228185	     -9.62949763	    -91.19953940	      0.21321666	      0.94697104	      0.83698553	      7.30739726	     -1.30212006	     -3.34168367	    -57.11246907	      4.18611288	      7.18437929	      3.62305406	      1.77103068	    -10.06339984	    -24.58819907	     18.64540907	    -16.00435555	    -14.76563400	      1.16566240	     -9.53113766
      4.11000000	     -0.00235680	     -9.57895752	    -91.22270712	      0.21401195	      0.94742186	      0.84075726	      7.77616574	     -1.62896375	     -3.75561250	    -56.21046213	      5.44107225	      6.35260547	      3.27110571	      1.82990226	    -10.11736532	    -24.30967872	     18.73849831	    -15.94704955	    -14.77002295	      1.21469208	     -9.72601593
      4.12000000	     -0.06168439	     -9.52479949	    -91.24383154	      0.21472318	      0.94785102	      0.84443026	      8.16378850	     -1.89308119	     -4.17802633	    -55.16329645	      6.61245811	      5.47721506	      2.94918340	      1.82663996	    -10.18403564	    -24.07266039	     18.84483387	    -15.88445120	    -14.77150124	      1.30787169	     -9.86659699
      4.13000000	     -0.10264290	     -9.47289651	    -91.24045300	      0.21539274	      0.94825452	      0.84802579	      8.47191569	     -2.16624632	     -4.61118382	    -54.00277065	      7.68413367	      4.75788852	      2.63383461	      1.83973980	    -10.23087009	    -23.83729096	     18.97261944	    -15.79252966	    -14.76964008	      1.37814162	    -10.05219869
      4.14000000	     -0.18538445	     -9.41078134	    -91.24279704	      0.21595426	      0.94863035	      0.85151895	      8.71065066	     -2.35476103	     -5.00641519	    -52.71322390	      8.65414988	      4.07414512	      2.35214037	      1.79549335	    -10.28284091	    -23.63529064	     19.08996231	    -15.69418999	    -14.75787224	      1.48580444	    -10.19003913
      4.15000000	     -0.26583480	     -9.35053024	    -91.21567063	      0.21647767	      0.94895959	      0.85491869	      8.87451875	     -2.52418914	     -5.41042974	    -51.32873494	      9.51253337	      3.59119960	      2.09765887	      1.74384851	    -10.33111309	    -23.47472770	     19.24797562	    -15.59212607	    -14.74829741	      1.58813009	    -10.34464408
      4.16000000	     -0.36711539	     -9.28769223	    -91.19152740	      0.21688537	      0.94926696	      0.85822936	      8.96719309	     -2.61491511	     -5.74055072	    -49.84195162	     10.27366399	      3.10311759	      1.85670573	      1.66596529	    -10.34219770	    -23.32305786	     19.37208887	    -15.49024019	    -14.73374862	      1.70303875	    -10.48929152
      4.17000000	     -0.46252427	     -9.20629415	    -91.14329962	      0.21724805	      0.94947941	      0.86142770	      9.02449412	     -2.67876793	     -6.04777786	    -48.30184024	     10.93263434	      2.83369014	      1.67484128	      1.57992865	    -10.37001245	    -23.22814898	     19.51899694	    -15.41998788	    -14.70052706	      1.80644745	    -10.62238673
      4.18000000	     -0.56435293	     -9.15866989	    -91.09206194	      0.21750927	      0.94973038	      0.86454344	      8.97359246	     -2.67528665	     -6.26167401	    -46.68287066	     11.49096377	      2.35848088	      1.45222848	      1.48950705	    -10.33720354	    -23.11261164	     19.62017643	    -15.31042865	    -14.70454497	      1.90545761	    -10.73774438
      4.19000000	     -0.65169651	     -9.04490407	    -91.02319019	      0.21769725	      0.94978987	      0.86751643	      8.96309217	     -2.63573769	     -6.38432263	    -45.06735407	     12.01039332	      2.26967166	      1.35429072	      1.39811414	    -10.30312724	    -23.07637037	     19.75960888	    -15.26601127	    -14.63267000	      1.98111092	    -10.86478151
